<svg width="274" height="180" viewBox="0 0 274 180" fill="none" xmlns="http://www.w3.org/2000/svg">
<path d="M253.191 106.524C253.191 107.29 253.191 108.046 253.183 108.812C253.165 110.222 253.123 111.641 253.071 113.043C251.873 142.36 242.634 169.7 242.634 169.7L188.527 169.717H183.912H175.375H161.804H150.167L126.774 169.726H121.654H110.026L93.2779 169.734L76.5297 169.743L24.6666 169.76C14.2375 150.057 23.5792 142.954 30.472 132.892C34.1624 127.508 37.1507 121.273 36.0291 111.796C35.6352 108.511 34.7532 104.839 33.2291 100.676C32.5441 98.8101 32.3301 96.8665 32.0047 95.0089C31.8591 94.1747 31.7307 93.3405 31.6194 92.5149C31.5851 92.2999 31.5594 92.0763 31.5337 91.8613C26.1907 49.0591 48.5474 28.9007 83.3283 25.5208C110.617 22.8634 121.937 30.9217 129.103 37.3115C152.822 58.4503 154.637 38.4897 205.404 42.9101C232.932 45.3095 245.63 61.8989 250.554 82.3411C250.888 83.7343 251.188 85.1447 251.453 86.5723C251.59 87.3291 251.727 88.0859 251.847 88.8513C252.069 90.2531 252.266 91.6635 252.429 93.0825C252.523 93.8823 252.609 94.6907 252.677 95.4991C252.806 96.9009 252.909 98.3199 252.986 99.7303C253.028 100.573 253.071 101.416 253.097 102.259C253.165 103.703 253.191 105.114 253.191 106.524Z" fill="#EBF3FA"/>
<path d="M220.568 72.5526H125.452V144.909H220.619L220.568 72.5526Z" fill="#DB6161"/>
<path d="M217.056 75.026H110.338V144.909H217.069L217.056 75.026Z" fill="#233862"/>
<path d="M165.343 144.905H178.488V131.546H165.343V144.905Z" fill="#E69D43"/>
<path d="M165.338 144.909H178.483V131.564H175.537L165.338 144.909Z" fill="#E78B37"/>
<path d="M177.935 144.905H185.897V131.546H177.935V144.905Z" fill="#D57912"/>
<path d="M164.641 131.742H186.443V114.777H164.641V131.742Z" fill="#E69D43"/>
<path d="M164.643 131.744H186.445V114.779H182.355L164.643 131.744Z" fill="#E78B37"/>
<path d="M185.895 131.742H191.914V114.777H185.895V131.742Z" fill="#D57912"/>
<path d="M72.8711 149.959H44.7929C44.1112 149.959 43.5581 149.405 43.5581 148.722V137.631C43.5581 136.948 44.1112 136.394 44.7929 136.394H72.8711C73.5528 136.394 74.1059 136.948 74.1059 137.631V148.722C74.1059 149.405 73.5528 149.959 72.8711 149.959Z" fill="#FF9E55"/>
<path d="M174.097 155.921C174.906 149.197 170.119 143.089 163.405 142.279C156.691 141.469 150.592 146.263 149.784 152.987C148.975 159.712 153.762 165.819 160.476 166.629C167.19 167.439 173.288 162.645 174.097 155.921Z" fill="#233862"/>
<path d="M214.876 156.665C216.096 150.004 211.692 143.613 205.04 142.392C198.388 141.171 192.008 145.581 190.788 152.243C189.569 158.905 193.973 165.296 200.625 166.517C207.276 167.738 213.657 163.327 214.876 156.665Z" fill="#233862"/>
<path d="M65.657 157.309C67.2294 150.722 63.172 144.105 56.5946 142.53C50.0173 140.956 43.4107 145.019 41.8384 151.606C40.2661 158.194 44.3235 164.81 50.9008 166.385C57.4781 167.96 64.0847 163.896 65.657 157.309Z" fill="#233862"/>
<path d="M47.5709 154.442C47.5709 151.015 50.3363 148.246 53.7576 148.246C57.179 148.246 59.9443 151.015 59.9443 154.442C59.9443 157.868 57.179 160.638 53.7576 160.638C50.3363 160.638 47.5709 157.868 47.5709 154.442Z" fill="#F59040"/>
<path d="M57.8613 149.83C58.2086 150.603 58.4015 151.466 58.4015 152.368C58.4015 155.782 55.6361 158.564 52.2148 158.564C50.6327 158.564 49.1922 157.971 48.0989 156.992C49.0635 159.144 51.2244 160.651 53.7454 160.651C57.1667 160.651 59.9321 157.881 59.9321 154.455C59.9321 152.613 59.1347 150.964 57.8613 149.83Z" fill="#D36E2A"/>
<path d="M51.8287 154.442C51.8287 153.385 52.6904 152.522 53.7451 152.522C54.7998 152.522 55.6616 153.385 55.6616 154.442C55.6616 155.498 54.7998 156.361 53.7451 156.361C52.6904 156.361 51.8287 155.511 51.8287 154.442Z" fill="#FF9E55"/>
<path d="M49.7448 157.74C49.7448 157.327 50.0793 156.992 50.4908 156.992C50.9024 156.992 51.2369 157.327 51.2369 157.74C51.2369 158.152 50.9024 158.487 50.4908 158.487C50.0793 158.474 49.7448 158.152 49.7448 157.74Z" fill="#FF9E55"/>
<path d="M48.8831 152.213C48.8831 151.801 49.2176 151.466 49.6292 151.466C50.0408 151.466 50.3752 151.801 50.3752 152.213C50.3752 152.625 50.0408 152.96 49.6292 152.96C49.2176 152.96 48.8831 152.625 48.8831 152.213Z" fill="#FF9E55"/>
<path d="M57.0378 152.213C57.0378 151.801 57.3722 151.466 57.7838 151.466C58.1954 151.466 58.5298 151.801 58.5298 152.213C58.5298 152.625 58.1954 152.96 57.7838 152.96C57.3722 152.96 57.0378 152.625 57.0378 152.213Z" fill="#FF9E55"/>
<path d="M56.4206 157.74C56.4206 157.327 56.755 156.992 57.1666 156.992C57.5782 156.992 57.9126 157.327 57.9126 157.74C57.9126 158.152 57.5782 158.487 57.1666 158.487C56.755 158.487 56.4206 158.152 56.4206 157.74Z" fill="#FF9E55"/>
<path d="M53.0118 149.714C53.0118 149.302 53.3463 148.967 53.7578 148.967C54.1694 148.967 54.5039 149.302 54.5039 149.714C54.5039 150.126 54.1694 150.461 53.7578 150.461C53.3463 150.461 53.0118 150.126 53.0118 149.714Z" fill="#FF9E55"/>
<path d="M155.536 154.442C155.536 151.015 158.302 148.246 161.723 148.246C165.145 148.246 167.91 151.015 167.91 154.442C167.91 157.868 165.145 160.638 161.723 160.638C158.302 160.638 155.536 157.868 155.536 154.442Z" fill="#D36E2A"/>
<path d="M159.794 154.442C159.794 153.385 160.656 152.522 161.71 152.522C162.765 152.522 163.627 153.385 163.627 154.442C163.627 155.498 162.765 156.361 161.71 156.361C160.656 156.361 159.794 155.511 159.794 154.442Z" fill="#FF9E55"/>
<path d="M157.71 157.74C157.71 157.327 158.045 156.992 158.456 156.992C158.868 156.992 159.202 157.327 159.202 157.74C159.202 158.152 158.868 158.487 158.456 158.487C158.045 158.487 157.71 158.152 157.71 157.74Z" fill="#FF9E55"/>
<path d="M157.441 152.213C157.441 151.801 157.775 151.466 158.187 151.466C158.598 151.466 158.933 151.801 158.933 152.213C158.933 152.625 158.598 152.96 158.187 152.96C157.775 152.96 157.441 152.625 157.441 152.213Z" fill="#FF9E55"/>
<path d="M164.386 157.74C164.386 157.327 164.72 156.992 165.132 156.992C165.543 156.992 165.878 157.327 165.878 157.74C165.878 158.152 165.543 158.487 165.132 158.487C164.72 158.487 164.386 158.152 164.386 157.74Z" fill="#FF9E55"/>
<path d="M157.17 149.714C157.17 149.302 157.505 148.967 157.916 148.967C158.328 148.967 158.662 149.302 158.662 149.714C158.662 150.126 158.328 150.461 157.916 150.461C157.505 150.461 157.17 150.126 157.17 149.714Z" fill="#FF9E55"/>
<path d="M106.929 155.942C107.757 149.22 102.987 143.099 96.2749 142.27C89.563 141.441 83.4509 146.218 82.6232 152.94C81.7954 159.662 86.5655 165.784 93.2774 166.613C99.9893 167.442 106.101 162.664 106.929 155.942Z" fill="#233862"/>
<path d="M53.6164 88.1909C53.6164 88.1909 55.4685 78.0659 69.5012 78.0659L69.707 88.9252L53.6164 88.1909Z" fill="#D57912"/>
<path d="M92.7816 134.076H39.5706L43.9952 98.0842C44.7155 92.2359 49.6803 87.8432 55.5584 87.8432H92.7688V134.076H92.7816Z" fill="#FE7366"/>
<path d="M61.8481 112.074H46.9279L48.9087 97.8651C49.3203 94.941 51.8156 92.7639 54.761 92.7639H62.3111L61.8481 112.074Z" fill="#D57912"/>
<path d="M60.742 111.005H50.9153C49.4361 111.005 48.2914 109.703 48.4843 108.222L49.7834 98.3933C50.1307 95.7912 52.2401 93.8589 54.7354 93.8589H61.1279L60.742 111.005Z" fill="#DCE7F9"/>
<path d="M171.357 72.5526H69.0255V144.909H171.357V72.5526Z" fill="#F78049"/>
<path d="M72.0351 134.076H39.5709C36.7154 134.269 36.4325 135.686 36.4325 135.686L33.6542 149.134C33.6542 149.598 34.0787 149.972 34.5932 149.972H42.7607C43.2752 149.972 43.6482 149.598 43.8668 149.109C43.8668 149.109 45.1273 147.55 45.9634 146.996C48.0728 145.605 50.3623 144.69 53.745 144.69C57.9124 144.69 61.5781 146.017 63.7904 148.04H72.0222C73.0126 148.04 73.8229 147.524 73.8229 146.88V135.222C73.8487 134.591 73.0255 134.076 72.0351 134.076Z" fill="#D57912"/>
<path d="M180.335 160.471H170.046C169.814 159.221 169.364 158.126 168.759 157.147C165.647 152.149 158.379 150.629 154.225 150.165C152.411 149.959 151.19 149.959 151.19 149.959H168.875C173.505 150.59 176.348 153.115 178.033 155.537C179.808 158.062 180.335 160.471 180.335 160.471Z" fill="#D15050"/>
<path d="M221.057 160.471H210.767C210.497 159.054 209.957 157.817 209.223 156.761C204.529 149.972 191.924 149.959 191.924 149.959H209.609C213.481 150.487 216.092 152.342 217.841 154.339C220.362 157.25 221.057 160.471 221.057 160.471Z" fill="#D15050"/>
<path d="M178.045 155.537C178.045 155.537 171.28 154.107 168.759 157.16C165.646 152.162 158.379 150.642 154.225 150.178C154.135 150.114 154.057 150.036 153.98 149.972H168.887C173.505 150.59 176.348 153.115 178.045 155.537Z" fill="#F77D48"/>
<path d="M217.841 154.352C217.841 154.352 212.182 154.223 209.223 156.761C204.529 149.972 191.924 149.959 191.924 149.959H209.609C213.481 150.487 216.092 152.342 217.841 154.352Z" fill="#F77D48"/>
<path d="M71.3409 151.93H222.215C222.973 151.93 223.591 151.312 223.591 150.551V146.288C223.591 145.528 222.973 144.909 222.215 144.909H71.3409C70.582 144.909 69.9646 145.528 69.9646 146.288V150.551C69.9646 151.312 70.5948 151.93 71.3409 151.93Z" fill="#F77D48"/>
<path d="M105.709 162.222H77.7976C77.0645 162.222 76.4728 161.63 76.4728 160.896V148.014C76.4728 147.28 77.0645 146.687 77.7976 146.687H105.709C106.442 146.687 107.033 147.28 107.033 148.014V160.896C107.033 161.617 106.429 162.222 105.709 162.222Z" fill="#F77D48"/>
<path d="M167.386 142.065H73.0095L72.8813 75.3964H93.5719C98.7772 90.7215 117.361 126.866 167.386 129.61V142.065Z" fill="#F77D48" stroke="#F9621D" stroke-width="0.2"/>
<path d="M40.5356 105.105C40.5356 105.105 39.2108 112.267 39.2751 113.426C39.3394 114.599 40.4456 115.165 41.2816 115.165L40.5356 105.105Z" fill="#B64C41"/>
<path d="M44.5743 115.165H41.3459C40.87 115.165 40.4842 114.779 40.4842 114.302V105.362C40.4842 104.886 40.87 104.499 41.3459 104.499H44.5743C45.0502 104.499 45.4361 104.886 45.4361 105.362V114.302C45.4361 114.779 45.0502 115.165 44.5743 115.165Z" fill="#D57912"/>
<path d="M44.3298 114.65H41.7702C41.3715 114.65 41.037 114.315 41.037 113.916V105.839C41.037 105.44 41.3715 105.105 41.7702 105.105H44.3298C44.7285 105.105 45.0629 105.44 45.0629 105.839V113.916C45.0629 114.315 44.7285 114.65 44.3298 114.65Z" fill="#DCE7F9"/>
<path d="M42.9666 104.706C42.8765 104.706 42.7994 104.615 42.7994 104.512V101.498C42.7994 101.485 42.7994 101.485 42.7994 101.472C42.7994 101.459 43.0052 99.7459 44.8059 99.7975C46.4522 99.849 47.1597 99.7975 47.1725 99.7975C47.2626 99.7846 47.3397 99.8748 47.3526 99.9778C47.3526 100.081 47.2883 100.171 47.1983 100.184C47.1725 100.184 46.4651 100.235 44.8059 100.184C43.3525 100.145 43.1595 101.369 43.1338 101.511V104.512C43.1209 104.615 43.0566 104.706 42.9666 104.706Z" fill="#B64C41"/>
<path d="M60.472 116.698H57.4622C57.0377 116.698 56.6905 116.35 56.6905 115.925C56.6905 115.5 57.0377 115.152 57.4622 115.152H60.472C60.8964 115.152 61.2437 115.5 61.2437 115.925C61.2308 116.363 60.8835 116.698 60.472 116.698Z" fill="#D57912"/>
<path d="M182.36 144.815H195.505V131.649H182.36V144.815Z" fill="#E69D43"/>
<path d="M182.354 144.909H195.499V131.653H192.708L182.354 141.92V144.909Z" fill="#E78B37"/>
<path d="M194.957 144.906H200.976V131.651H194.957V144.906Z" fill="#D57912"/>
<path d="M192.889 134.501C193.146 133.947 193.004 133.651 193.004 133.651C193.004 133.651 187.088 131.448 186.509 131.306C186.123 131.203 181.673 129.361 179.46 128.06C178.354 127.416 177.505 128.111 176.489 128.82L175.653 129.4C174.65 130.095 174.894 131.757 176.065 132.195C179.37 133.445 184.464 134.372 185.428 134.604C187.847 135.171 192.233 135.325 192.233 135.325C192.233 135.325 192.67 134.977 192.889 134.501Z" fill="#91CECF"/>
<path d="M211.114 134.424L210.316 134.462C210.316 134.462 208.915 133.921 208.168 135.39C208.168 135.39 207.911 136.021 208.4 136.047C208.889 136.073 208.709 135.995 209.39 136.047C210.072 136.098 210.728 135.841 210.96 135.39L211.397 135.016L211.114 134.424Z" fill="#FFB27D"/>
<path d="M210.535 134.991C210.368 134.45 210.406 134.359 210.406 134.359C210.406 134.359 215.255 131.744 215.706 131.487C216.156 131.216 221.172 125.896 221.172 125.896L226.304 127.326C226.304 127.326 218.355 133.367 217.21 134.012C215.333 135.081 210.972 135.686 210.972 135.686C210.972 135.686 210.664 135.416 210.535 134.991Z" fill="#91CECF"/>
<path d="M216.118 138.533L196.027 142.81L191.371 120.911L211.462 116.634L216.118 138.533Z" fill="#D57912"/>
<path d="M207.565 140.349L192.863 143.48L188.207 121.581L202.909 118.45L207.565 140.349Z" fill="#E69D43"/>
<path d="M207.565 140.349L192.863 143.48L191.963 139.241L200.477 118.966L202.908 118.45L207.565 140.349Z" fill="#E78B37"/>
<path d="M197.133 163.318C197.133 163.318 197.918 164.181 199.731 163.717C199.731 163.717 201.197 163.382 201.519 164.116C201.519 164.116 199.68 165.288 199.101 165.598C198.676 165.829 198.226 166.203 197.905 166.486C197.66 166.718 197.262 166.68 197.056 166.422C196.953 166.306 196.85 166.152 196.721 165.984C196.374 165.52 195.564 164 195.564 164L197.133 163.318Z" fill="#233862"/>
<path d="M197.828 162.867C197.828 162.867 197.107 164.528 195.435 164.232C195.435 164.232 192.04 161.424 189.699 158.5C188.94 157.546 188.297 156.593 187.911 155.717C186.367 152.136 182.187 146.777 179.538 144.072L186.174 141.663C186.174 141.663 188.297 145.953 191.126 151.209C193.184 154.983 195.59 159.286 197.828 162.867Z" fill="#2B478B"/>
<path d="M191.152 151.196L189.712 158.487C188.953 157.533 188.31 156.58 187.924 155.704C186.38 152.123 182.2 146.764 179.551 144.059L186.188 141.65C186.188 141.65 188.323 145.927 191.152 151.196Z" fill="#233862"/>
<path d="M185.724 164.283C185.724 164.283 185.647 165.61 187.268 165.791C187.268 165.791 188.245 165.816 188.245 166.654H183.512C183.512 166.654 183.37 166.306 183.345 165.585C183.319 165.018 183.885 163.549 183.885 163.549L185.724 164.283Z" fill="#233862"/>
<path d="M184.014 141.651C184.014 141.651 186.972 144.91 188.85 150.771C189.866 153.965 186.972 161.991 186.419 164.773C186.419 164.773 184.477 164.941 183.152 164.425C183.152 164.425 183.049 158.667 183.834 154.236C184.271 151.75 179.936 148.929 178.046 144.433C176.759 141.38 178.329 141.432 180.245 141.354L184.014 141.651Z" fill="#2B478B"/>
<path d="M180.592 127.12C178.946 128.047 175.576 127.197 175.576 127.197C175.576 127.197 176.939 125.626 176.322 123.101L177.608 123.758L178.997 124.466C178.997 124.466 179.087 124.917 179.152 125.716C179.164 125.922 179.177 126.154 179.19 126.398C180.052 126.656 180.592 127.12 180.592 127.12Z" fill="#FFB07B"/>
<path d="M186.637 141.483C186.637 141.766 186.303 141.908 186.238 141.921C185.57 142.037 183.717 142.758 182.045 142.926C180.643 143.068 179.331 142.939 177.904 142.642C177.711 142.604 177.274 142.488 177.235 142.308C177.196 142.114 171.704 131.1 175.974 126.36C176.077 126.244 176.913 126.45 177.685 126.63C178.393 126.798 179.049 126.708 179.627 126.476L180.348 126.862C181.235 127.352 182.92 129.117 183.113 130.495C183.216 131.203 183.615 131.719 183.73 132.337C183.769 132.569 183.82 132.788 183.859 133.007C183.949 133.432 184.039 133.844 184.129 134.231C184.386 135.274 184.644 136.176 184.901 136.949C185.184 137.773 185.454 138.456 185.698 139.036C186.007 139.783 186.277 140.337 186.444 140.762C186.56 141.058 186.637 141.29 186.637 141.483Z" fill="#ABDDDA"/>
<path d="M186.445 140.749C178.689 137.09 176.001 130.07 176.001 130.07C176.001 130.07 182.239 132.131 183.795 132.736C183.885 133.161 184.027 133.844 184.117 134.23C184.374 135.274 184.631 136.176 184.888 136.949C185.171 137.773 185.441 138.456 185.686 139.035C186.02 139.77 186.278 140.324 186.445 140.749Z" fill="#91CECF"/>
<path d="M189.223 122.921L189.377 122.225C189.377 122.225 188.245 121.027 189.66 119.983C189.66 119.983 190.29 119.584 190.496 120.048C190.715 120.499 190.548 120.344 190.869 120.988C191.191 121.619 191.126 122.302 190.676 122.624L190.406 123.127L189.223 122.921Z" fill="#FFB07B"/>
<path d="M179.165 125.716C177.544 125.806 176.489 124.466 176.489 124.466C176.489 124.466 177.222 124.054 177.621 123.758L179.01 124.466C179.01 124.466 179.1 124.917 179.165 125.716Z" fill="#EA8E50"/>
<path d="M179.846 124.054C179.846 124.054 177.39 125.819 176.322 124.273C175.254 122.727 174.213 121.916 175.73 120.718C177.248 119.533 177.968 119.906 178.457 120.331C178.946 120.756 180.464 123.552 179.846 124.054Z" fill="#FFB07B"/>
<path d="M178.714 118.927C178.624 118.335 178.431 117.909 178.431 117.909C178.431 117.909 178.277 118.554 177.107 118.463C175.936 118.373 174.097 118.579 173.479 119.906C173.441 119.996 173.402 120.074 173.377 120.164C173.261 119.867 173.235 119.429 173.235 119.429C173.016 119.996 173.235 120.718 173.235 120.718C173.235 120.743 173.235 120.756 173.222 120.782C172.965 121.001 172.746 121.671 172.746 121.671C172.823 121.478 173.016 121.362 173.184 121.284C173.184 122.315 173.595 123.333 174.328 123.629C175.409 124.067 175.396 123.732 176.476 124.453C176.476 124.453 176.772 124.093 176.566 123.848C176.373 123.603 175.627 123.255 176.039 122.908C176.451 122.56 176.605 122.946 176.759 122.714C176.914 122.47 176.142 121.774 177.132 121.104C178.148 120.447 178.804 119.533 178.714 118.927Z" fill="#2B478B"/>
<path d="M236.312 162.764C236.312 162.764 237.135 163.524 236.98 164.078C236.813 164.619 236.08 164.98 235.977 165.649C235.874 166.319 235.476 166.68 235.115 166.68C234.755 166.68 233.392 166.68 233.392 166.68C233.392 166.68 233.122 166.216 233.765 166.074C234.408 165.933 234.652 165.147 234.614 164.426C234.575 163.704 234.678 162.738 234.678 162.738L236.041 162.416L236.312 162.764Z" fill="#2C3A64"/>
<path d="M226.034 166.654C226.009 166.667 225.983 166.68 225.931 166.68H221.353C221.391 166.525 221.533 166.203 222.086 166.113C222.806 165.997 224.054 165.572 224.337 164.657C224.349 164.632 224.349 164.593 224.362 164.567C224.581 163.575 226.189 164.864 226.189 164.864C226.189 164.864 226.189 164.902 226.202 164.967C226.24 165.327 226.343 166.5 226.034 166.654Z" fill="#2C3A64"/>
<path d="M222.279 140.234C222.279 140.234 222.523 143.287 222.806 146.958C223.192 151.943 223.668 158.075 223.719 159.234C223.796 161.244 224.118 164.477 224.118 164.477C224.118 164.477 224.877 165.237 226.407 164.915C226.407 164.915 227.771 160.317 228.157 155.447C228.157 155.37 228.169 155.293 228.169 155.202C228.53 150.243 229.095 139.809 229.095 139.809L222.279 140.234Z" fill="#2B478B"/>
<path d="M222.279 140.234C222.279 140.234 222.523 143.287 222.806 146.958L228.157 155.447C228.157 155.37 228.169 155.293 228.169 155.203C228.53 150.243 229.095 139.809 229.095 139.809L222.279 140.234Z" fill="#233862"/>
<path d="M223.397 140.594C223.397 140.594 227.809 151.66 230.703 156.864C233.597 162.068 234.51 163.511 234.51 163.511C234.51 163.511 236.17 162.841 236.324 162.39C236.324 162.39 235.218 152.355 233.276 149.908C232.182 148.53 230.896 144.369 230.832 142.926C230.767 141.47 230.433 138.598 230.433 138.598L223.397 140.594Z" fill="#2B478B"/>
<path d="M223.848 122.753C223.848 122.753 221.649 125.651 219.848 125.832C219.848 125.832 220.067 124.788 220.581 124.118C220.44 123.887 220.311 123.68 220.195 123.5C219.835 122.882 219.668 122.508 219.668 122.508L220.465 120.988L221.005 119.958C221.147 120.331 221.327 120.666 221.507 120.95C222.497 122.418 223.848 122.753 223.848 122.753Z" fill="#FFB27D"/>
<path d="M221.533 120.95C221.533 120.95 221.533 122.547 220.208 123.5C219.848 122.882 219.68 122.508 219.68 122.508L220.478 120.988C221.134 120.885 221.533 120.95 221.533 120.95Z" fill="#ED975D"/>
<path d="M219.179 122.676C219.179 122.676 221.983 121.993 221.533 120.254C221.083 118.515 221.134 117.252 219.333 117.613C217.52 117.974 217.353 118.734 217.365 119.352C217.353 119.971 218.433 122.804 219.179 122.676Z" fill="#FFB27D"/>
<path d="M230.871 140.079C229.597 141.483 221.288 142.488 221.52 141.431C221.61 141.032 221.751 140.311 221.803 139.319C221.816 139.087 221.816 138.842 221.816 138.572C221.803 137.142 221.558 135.261 220.748 133.02C220.684 132.852 220.619 132.685 220.555 132.504C220.221 131.628 219.951 130.727 219.771 129.851C219.423 128.163 219.41 126.592 219.822 125.626L220.362 124.067C222.15 123.513 222.652 122.135 222.652 122.135C222.652 122.135 228.247 123.925 230.446 132.002C230.446 132.015 231.99 138.868 230.871 140.079Z" fill="#ABDDDA"/>
<path d="M221.803 139.319C221.816 139.087 221.816 138.842 221.816 138.572C221.803 137.142 221.558 135.261 220.748 133.02C221.083 131.912 221.468 131.01 221.803 130.624C223.179 129.065 223.874 128.885 223.874 128.885C223.874 128.885 224.62 136.369 221.803 139.319Z" fill="#91CECF"/>
<path d="M222.304 117.227C222.33 117.188 222.382 117.162 222.523 117.136C222.523 117.136 222.407 117.072 222.253 117.085C222.202 116.892 222.06 116.557 221.726 116.505C221.726 116.505 221.919 116.583 221.957 116.789C221.533 116.428 220.671 116.235 218.42 116.66C215.449 117.227 216.645 119.082 217.069 119.262C217.481 119.455 218.394 118.708 219.127 118.682C219.861 118.657 220.118 119.713 220.375 119.829C220.632 119.945 220.517 119.7 220.825 119.507C221.147 119.313 221.237 119.88 221.173 120.254C221.121 120.627 221.623 121.052 221.623 121.052C221.623 121.052 221.623 121.052 222.034 120.499C222.446 119.945 222.639 117.755 222.382 117.317C222.356 117.304 222.33 117.265 222.304 117.227Z" fill="#233862"/>
<path d="M214.099 137.644C214.099 137.644 213.095 137.696 212.877 137.773C212.658 137.85 211.976 138.378 211.989 138.456C212.002 138.52 212.041 138.559 212.182 138.533C212.324 138.507 212.735 138.327 212.722 138.391C212.71 138.456 211.513 139.048 211.578 139.306C211.629 139.564 212.452 139.847 213.044 139.718C213.636 139.589 214.845 138.675 214.922 138.61C214.999 138.533 214.099 137.644 214.099 137.644Z" fill="#FFB27D"/>
<path d="M214.163 138.16C213.79 137.683 213.996 137.412 213.996 137.412C213.996 137.412 218.498 133.033 218.832 132.608C219.179 132.182 220.298 125.793 220.298 125.793C220.298 125.793 220.941 124.26 222.343 123.822C223.565 123.449 224.196 122.933 224.839 123.603C225.61 124.402 225.803 125.587 225.34 126.579C224.311 128.833 222.228 133.303 221.572 134.102C220.298 135.635 216.208 138.108 215.153 138.739C214.999 138.829 214.806 138.816 214.665 138.688C214.523 138.546 214.317 138.353 214.163 138.16Z" fill="#ABDDDA"/>
<path d="M190.831 122.701C190.831 122.701 190.612 122.354 190.072 122.238C189.403 122.083 189.095 122.019 189.095 122.019C189.095 122.019 185.725 127.622 185.455 128.189C185.39 128.318 185.287 128.511 185.133 128.782C185.017 128.988 184.773 129.091 184.541 129.026C183.242 128.679 181.815 128.228 180.747 127.738C179.551 127.184 178.149 127.339 177.094 128.138L176.232 128.795C175.191 129.593 175.499 131.242 176.773 131.577C179.834 132.414 184.284 132.904 186.149 133.123C186.998 133.226 188.014 131.126 188.529 129.941C189.609 127.481 190.831 122.701 190.831 122.701Z" fill="#ABDDDA"/>
</svg>
