<svg width="274" height="172" viewBox="0 0 274 172" fill="none" xmlns="http://www.w3.org/2000/svg">
<path d="M255.539 92.6909C255.539 93.4563 255.539 94.2131 255.531 94.9785C255.514 96.3889 255.471 97.8079 255.419 99.2097C254.221 128.527 244.982 155.866 244.982 155.866L190.875 155.884H186.26H177.723H164.152H152.515L129.123 155.892H124.002H112.374L95.6261 155.901L78.8778 155.909L27.0148 155.927C16.5856 136.224 25.9273 129.12 32.8201 119.058C36.5106 113.675 39.4989 107.44 38.3772 97.9627C37.9833 94.6775 37.1014 91.0053 35.5773 86.8429C34.8923 84.9767 34.6782 83.0331 34.3528 81.1755C34.2073 80.3413 34.0788 79.5071 33.9675 78.6815C33.9333 78.4665 33.9076 78.2429 33.8819 78.0279C28.5389 35.2256 50.8956 15.0672 85.6764 11.6874C112.965 9.03004 124.285 17.0882 131.452 23.478C155.17 44.6169 156.985 24.6562 207.752 29.0766C235.28 31.476 247.979 48.0654 252.902 68.5077C253.236 69.9009 253.536 71.3113 253.801 72.7389C253.938 73.4957 254.075 74.2525 254.195 75.0179C254.418 76.4197 254.615 77.8301 254.777 79.2491C254.871 80.0489 254.957 80.8573 255.026 81.6657C255.154 83.0675 255.257 84.4865 255.334 85.8969C255.377 86.7397 255.419 87.5825 255.445 88.4253C255.514 89.8701 255.539 91.2805 255.539 92.6909Z" fill="#EBF3FA"/>
<path d="M83.3902 28.036L99.3679 28.0102C99.8902 27.09 100.121 26.1354 100.027 25.1808C99.9501 24.467 99.7018 23.7962 99.2908 23.177L83.3731 27.6146L83.3902 28.036Z" fill="#D9E5FC"/>
<path d="M81.772 28.3112L66.1283 31.5792C65.4348 30.788 65.0067 29.9022 64.9125 28.9476C64.8354 28.2338 64.9467 27.5286 65.2293 26.832L81.7121 27.8984L81.772 28.3112Z" fill="#D9E5FC"/>
<path d="M76.8829 19.565L81.9176 28.2339L82.9109 28.1307L86.0533 18.5932C84.5891 18.576 83.0735 18.6448 81.5152 18.7996C79.8969 18.9716 78.3471 19.2296 76.8829 19.565Z" fill="#D9E5FC"/>
<path d="M78.9979 36.3866C80.385 36.3952 81.8235 36.3264 83.2962 36.1716C84.7176 36.0254 86.0876 35.8018 87.4062 35.5266L82.8167 28.1392L81.9519 28.2252L78.9979 36.3866Z" fill="#D9E5FC"/>
<path d="M93.1515 46.9646C93.2457 47.8762 75.8981 49.708 75.8039 48.7706C75.7953 48.719 75.7953 48.6674 75.7867 48.6158C75.6669 47.1624 75.8981 45.7606 76.4204 44.505C77.6106 41.6412 80.2821 39.5084 83.5701 39.1644C86.8324 38.829 89.8635 40.3426 91.6188 42.8624C92.4151 44.0148 92.9546 45.3736 93.1258 46.8614C93.1429 46.8872 93.1429 46.9216 93.1515 46.9646Z" fill="#233862"/>
<path d="M82.029 31.519L82.166 44.9952L86.7384 44.5222L83.6302 31.347L82.029 31.519Z" fill="#233862"/>
<path d="M47.1881 44.2556L31.5444 47.5236C30.8509 46.7324 30.4227 45.8466 30.3285 44.892C30.2515 44.1782 30.3628 43.473 30.6454 42.7764L47.1282 43.8428L47.1881 44.2556Z" fill="#D9E5FC"/>
<path d="M49.1062 43.8084L65.0838 43.7826C65.6061 42.8624 65.8373 41.9078 65.7431 40.9532C65.666 40.2394 65.4177 39.5686 65.0067 38.9494L49.0891 43.387L49.1062 43.8084Z" fill="#D9E5FC"/>
<path d="M51.8717 34.4344L48.7207 43.9546L47.7275 44.0578L42.7013 35.3718C44.1312 35.0536 45.6297 34.8042 47.188 34.6408C48.7978 34.4774 50.3647 34.4086 51.8717 34.4344Z" fill="#D9E5FC"/>
<path d="M53.2333 51.3334C51.8719 51.6258 50.4505 51.858 48.9778 52.0128C47.5564 52.159 46.1693 52.2278 44.825 52.2278L47.8047 44.0492L48.6695 43.9632L53.2333 51.3334Z" fill="#D9E5FC"/>
<path d="M84.3923 47.8763L48.4298 47.0851L48.5839 45.3737L84.0584 43.8687L84.3923 47.8763Z" fill="#233862"/>
<path d="M50.4333 48.0569L46.7429 48.4439C45.801 48.5385 44.9619 47.8591 44.8677 46.9131V46.8959C44.7735 45.9499 45.45 45.1071 46.3918 45.0125L50.0823 44.6255C51.0241 44.5309 51.8633 45.2103 51.9575 46.1563V46.1735C52.0602 47.1109 51.3752 47.9537 50.4333 48.0569Z" fill="#FF9E55"/>
<path d="M49.7741 44.247L46.6145 44.5738L46.5546 43.9804C46.5204 43.6364 46.7687 43.3354 47.1112 43.2924L49.1319 43.086C49.423 43.0602 49.6799 43.2666 49.7056 43.559L49.7741 44.247Z" fill="#FF9E55"/>
<path d="M48.8085 44.3426L47.4798 44.4808L47.5221 44.8914L48.8508 44.7532L48.8085 44.3426Z" fill="#FF9E55"/>
<path d="M120.098 36.5329L136.075 36.5071C136.598 35.5869 136.829 34.6323 136.735 33.6777C136.658 32.9639 136.409 32.2931 135.998 31.6739L120.081 36.1115L120.098 36.5329Z" fill="#D9E5FC"/>
<path d="M118.248 36.6791L102.605 39.9471C101.911 39.1559 101.483 38.2701 101.389 37.3155C101.312 36.6017 101.423 35.8965 101.706 35.1999L118.189 36.2663L118.248 36.6791Z" fill="#D9E5FC"/>
<path d="M113.625 27.5545L118.659 36.2233L119.653 36.1201L122.795 26.5827C121.331 26.5655 119.815 26.6343 118.257 26.7891C116.647 26.9611 115.097 27.2191 113.625 27.5545Z" fill="#D9E5FC"/>
<path d="M115.739 44.3761C117.127 44.3847 118.565 44.3159 120.038 44.1611C121.459 44.0149 122.829 43.7913 124.148 43.5161L119.558 36.1287L118.693 36.2147L115.739 44.3761Z" fill="#D9E5FC"/>
<path d="M84.6319 47.8505L119.67 39.6805L119.164 38.0379L84.1353 43.8601L84.6319 47.8505Z" fill="#233862"/>
<path d="M117.735 40.7985L121.725 40.3857C122.581 40.2997 123.206 39.5257 123.12 38.6657L123.112 38.6055C123.026 37.7455 122.256 37.1177 121.399 37.2037L117.409 37.6165C116.553 37.7025 115.928 38.4765 116.014 39.3365L116.022 39.3967C116.108 40.2567 116.87 40.8845 117.735 40.7985Z" fill="#FF9E55"/>
<path d="M117.923 37.1521L120.783 36.8511L120.723 36.2319C120.689 35.9051 120.398 35.6643 120.072 35.6987L118.3 35.8793C118.026 35.9051 117.829 36.1545 117.855 36.4297L117.923 37.1521Z" fill="#FF9E55"/>
<path d="M118.805 37.4719L120.023 37.3452L119.981 36.9346L118.763 37.0613L118.805 37.4719Z" fill="#FF9E55"/>
<path d="M73.7317 75.0179L73.4577 72.3519L73.4663 72.2831L78.501 49.7941L80.7787 49.5619L80.8643 50.3531L79.1518 50.5337L74.2626 72.3949L74.4424 74.1321L76.4632 73.9257L76.5488 74.7255L73.7317 75.0179Z" fill="#233862"/>
<path d="M64.8526 77.6667L64.5786 75.0007L64.5872 74.9405L69.6219 52.4429L71.8996 52.2107L71.9852 53.0105L70.2727 53.1825L65.3835 75.0523L65.5633 76.7895L67.5841 76.5745L67.6697 77.3743L64.8526 77.6667Z" fill="#233862"/>
<path d="M107.109 43.2065L107.425 49.7597L87.1494 53.9823C86.4644 54.1371 85.2913 54.2489 84.5892 54.2317L64.6471 54.1629L62.5322 50.3875C62.4208 49.2781 63.2942 48.3235 64.4074 48.3493L75.7869 48.6073L84.5977 48.8137L84.5892 48.7535L93.1346 46.8443L107.109 43.2065Z" fill="#94B0ED"/>
<path d="M82.8425 43.0173L63.7653 47.4205C62.909 47.6183 62.3354 48.4267 62.421 49.3039L62.7806 52.8213C62.8748 53.7415 63.7482 54.3693 64.6472 54.1629L84.0156 49.6737C84.4523 49.5705 84.889 49.5275 85.3342 49.5275L106.86 49.8027C107.742 49.8113 108.444 49.0459 108.35 48.1601L107.965 44.4449C107.879 43.6451 107.22 43.0431 106.424 43.0345L85.1287 42.7679C84.3667 42.7593 83.596 42.8453 82.8425 43.0173Z" fill="#AEC3FF"/>
<path d="M79.7086 48.2803L67.0703 51.2387C66.5652 51.3591 66.1113 51.0323 66.06 50.5249L65.9658 49.5789C65.9144 49.0629 66.2826 48.5469 66.7878 48.4351L79.426 45.4767C79.9312 45.3563 80.385 45.6831 80.4364 46.1905L80.5306 47.1365C80.582 47.6439 80.2138 48.1599 79.7086 48.2803Z" fill="#233862"/>
<path d="M66.5784 91.2435L99.2764 85.8005L94.8077 58.7199L62.1097 64.1629L66.5784 91.2435Z" fill="#ED823A"/>
<path d="M82.93 88.5179L115.628 83.0749L111.159 55.9943L78.4613 61.4374L82.93 88.5179Z" fill="#FF9E55"/>
<path d="M65.469 84.3661L70.6493 83.5061L69.9472 82.1129L70.2298 80.9949L65.0494 81.8549L65.469 84.3661Z" fill="#DD732C"/>
<path d="M79.8455 69.8149L85.0258 68.9549L84.3237 67.5617L84.6062 66.4437L79.4259 67.3037L79.8455 69.8149Z" fill="#FFB27D"/>
<path d="M79.4261 67.3037L74.2457 68.1723L74.9479 69.5569L74.6653 70.6749L79.8456 69.8149L79.4261 67.3037Z" fill="#DD732C"/>
<path d="M114.541 76.4971L109.361 77.3571L110.054 78.7503L109.772 79.8683L114.952 79.0083L114.541 76.4971Z" fill="#FFB27D"/>
<path d="M109.314 58.1836L99.9038 59.75L100.51 63.4236L109.92 61.8571L109.314 58.1836Z" fill="white"/>
<path d="M96.4994 69.4794C96.2939 69.4794 96.1227 69.3246 96.1056 69.1182C96.0799 68.8946 96.2426 68.6968 96.4652 68.6796L97.3557 68.585C97.9808 68.5162 98.4346 67.9572 98.3661 67.3294L98.3233 66.9166C98.3147 66.7962 98.2804 66.6758 98.2291 66.564L89.3926 47.085C89.1871 46.6378 88.7247 46.3712 88.2366 46.4228L87.3375 46.5174C87.1149 46.5432 86.918 46.3798 86.9009 46.1562C86.8752 45.9326 87.0379 45.7348 87.2605 45.7176L88.1595 45.623C88.9901 45.537 89.7779 45.9928 90.1204 46.7496L98.9569 66.2286C99.0425 66.4178 99.1025 66.6242 99.1196 66.8306L99.1624 67.2434C99.2737 68.3098 98.4945 69.2644 97.4328 69.3762L96.5423 69.4708C96.5251 69.4794 96.508 69.4794 96.4994 69.4794Z" fill="#233862"/>
<path d="M108.941 68.1723C108.744 68.1723 108.581 68.0261 108.556 67.8197C108.53 67.6047 108.684 67.4155 108.898 67.3897L109.789 67.2951C110.422 67.2263 110.876 66.6587 110.816 66.0309L110.79 65.7643C110.773 65.6353 110.739 65.5063 110.688 65.3859L102.014 47.1969C101.808 46.7583 101.337 46.5003 100.858 46.5433L99.9417 46.6379C99.7276 46.6637 99.5392 46.5089 99.5135 46.2939C99.4879 46.0789 99.642 45.8897 99.856 45.8639L100.772 45.7693C101.577 45.6833 102.356 46.1219 102.707 46.8529L111.381 65.0419C111.475 65.2397 111.535 65.4547 111.561 65.6783L111.587 65.9449C111.698 67.0027 110.927 67.9573 109.874 68.0691L108.984 68.1637C108.967 68.1723 108.949 68.1723 108.941 68.1723Z" fill="#233862"/>
<path d="M109.863 61.4619L97.2186 63.4637L97.3439 64.2623L109.989 62.2605L109.863 61.4619Z" fill="#233862"/>
<path d="M80.7873 32.491L85.197 32.0352C85.9334 31.9578 86.4728 31.2956 86.3957 30.5474L86.3358 29.9454C86.2587 29.2058 85.5994 28.664 84.8545 28.7414L80.4448 29.1972C79.7084 29.2746 79.169 29.9368 79.246 30.685L79.306 31.287C79.383 32.0266 80.0424 32.5684 80.7873 32.491Z" fill="#FF9E55"/>
<path d="M81.1211 28.7155L84.1094 28.4059L84.0495 27.7953C84.0152 27.4599 83.7155 27.2191 83.3901 27.2535L81.515 27.4513C81.2324 27.4771 81.0269 27.7351 81.0612 28.0189L81.1211 28.7155Z" fill="#FF9E55"/>
<path d="M82.0349 29.0325L83.3125 28.8996L83.2702 28.489L81.9926 28.6218L82.0349 29.0325Z" fill="#FF9E55"/>
<path d="M145.674 111.052C145.186 110.957 135.013 116.066 135.501 119.007C135.99 121.957 140.879 124.511 142.84 123.23C144.792 121.957 145.288 115.962 145.288 115.962L145.674 111.052Z" fill="#F77D48"/>
<path d="M155.315 79.8166C155.315 79.8166 149.964 82.345 148.414 92.6736C146.068 108.291 143.619 112.221 143.525 120.28C143.465 124.906 146.333 127.504 149.065 122.077C151.788 116.659 155.315 79.8166 155.315 79.8166Z" fill="#F77D48"/>
<path d="M178.537 141.161C178.537 141.161 178.537 141.195 178.528 141.272C178.528 141.281 178.528 141.29 178.528 141.298C178.528 141.324 178.528 141.35 178.52 141.384C178.52 141.393 178.52 141.401 178.52 141.419C178.511 141.513 178.511 141.625 178.503 141.763C178.503 141.797 178.503 141.823 178.494 141.857C178.494 141.866 178.494 141.874 178.494 141.883C178.494 141.9 178.494 141.926 178.494 141.943C178.494 141.978 178.494 142.003 178.485 142.038C178.485 142.089 178.477 142.15 178.477 142.21C178.477 142.279 178.468 142.347 178.468 142.425C178.468 142.502 178.46 142.58 178.46 142.666C178.46 142.7 178.46 142.726 178.451 142.76C178.443 142.915 178.434 143.078 178.425 143.259C178.425 143.328 178.417 143.397 178.417 143.465C178.408 143.603 178.4 143.749 178.391 143.904C178.391 143.964 178.383 144.024 178.383 144.093C178.383 144.153 178.374 144.205 178.374 144.265C178.374 144.343 178.366 144.429 178.366 144.506C178.366 144.515 178.366 144.523 178.366 144.532C178.357 144.626 178.357 144.73 178.348 144.824C178.348 144.902 178.34 144.979 178.34 145.065C178.34 145.074 178.34 145.082 178.34 145.091C178.34 145.16 178.331 145.22 178.331 145.289C178.323 145.504 178.306 145.719 178.297 145.942C178.288 146.106 178.28 146.278 178.271 146.458C178.263 146.699 178.246 146.948 178.229 147.206C178.22 147.327 178.22 147.447 178.211 147.568C178.194 147.808 178.186 148.049 178.169 148.29C178.169 148.367 178.16 148.445 178.16 148.514C178.151 148.608 178.151 148.694 178.143 148.789C178.134 148.987 178.117 149.184 178.109 149.382C178.109 149.451 178.1 149.528 178.1 149.597C178.092 149.743 178.083 149.881 178.074 150.027C178.066 150.173 178.057 150.32 178.049 150.466C178.04 150.689 178.023 150.913 178.014 151.145C178.014 151.223 178.006 151.3 178.006 151.377C178.006 151.395 178.006 151.42 178.006 151.438C177.997 151.575 177.989 151.704 177.98 151.842C177.972 152.057 177.955 152.272 177.946 152.495C177.929 152.839 177.912 153.183 177.886 153.536C177.877 153.648 177.877 153.76 177.869 153.871C177.852 154.155 177.835 154.439 177.818 154.723C177.792 155.11 177.775 155.497 177.749 155.892H164.177H152.541C152.541 155.858 152.533 155.832 152.533 155.798C152.524 155.729 152.524 155.66 152.515 155.591C152.507 155.48 152.498 155.376 152.49 155.265C152.43 154.508 152.37 153.768 152.318 153.046C152.293 152.745 152.267 152.452 152.25 152.16C152.25 152.134 152.25 152.108 152.241 152.083C152.224 151.868 152.207 151.653 152.19 151.438C152.181 151.369 152.181 151.3 152.173 151.223C152.164 151.119 152.156 151.016 152.147 150.913C152.139 150.758 152.122 150.603 152.113 150.449C152.087 150.148 152.07 149.855 152.044 149.563C152.027 149.374 152.01 149.176 152.002 148.987C151.993 148.892 151.985 148.806 151.976 148.72C151.967 148.66 151.967 148.608 151.959 148.548C151.95 148.462 151.942 148.376 151.942 148.299C151.942 148.273 151.933 148.238 151.933 148.213C151.925 148.101 151.916 147.989 151.907 147.886C151.907 147.834 151.899 147.783 151.899 147.722C151.89 147.654 151.89 147.576 151.882 147.507C151.873 147.37 151.865 147.241 151.848 147.103C151.848 147.095 151.848 147.095 151.848 147.086C151.839 146.957 151.83 146.828 151.813 146.699C151.813 146.69 151.813 146.69 151.813 146.682C151.805 146.553 151.796 146.432 151.788 146.303C151.779 146.235 151.779 146.174 151.77 146.106C151.753 145.856 151.728 145.607 151.711 145.366C151.711 145.306 151.702 145.254 151.693 145.194C151.685 145.048 151.668 144.902 151.659 144.755C151.556 143.508 151.505 142.82 151.505 142.82L158.843 142.365L162.482 142.141L178.537 141.161Z" fill="#2B478B"/>
<path d="M178.537 141.16C178.537 141.16 178.537 141.195 178.528 141.272C178.528 141.281 178.528 141.289 178.528 141.298C178.528 141.324 178.528 141.35 178.52 141.384C178.52 141.393 178.52 141.401 178.52 141.418C178.511 141.513 178.511 141.625 178.503 141.762C178.503 141.797 178.503 141.823 178.494 141.857C178.494 141.866 178.494 141.874 178.494 141.883C178.494 141.9 178.494 141.926 178.494 141.943C178.494 141.977 178.494 142.003 178.485 142.038C178.485 142.089 178.477 142.149 178.477 142.21C178.477 142.278 178.468 142.347 178.468 142.425C178.468 142.502 178.46 142.579 178.46 142.665C178.46 142.7 178.46 142.726 178.451 142.76C178.443 142.915 178.434 143.078 178.426 143.259C178.426 143.328 178.417 143.396 178.417 143.465C178.408 143.603 178.4 143.749 178.391 143.904C178.391 143.964 178.383 144.024 178.383 144.093C178.383 144.153 178.374 144.205 178.374 144.265C178.374 144.342 178.366 144.428 178.366 144.506C178.366 144.514 178.366 144.523 178.366 144.532C178.357 144.626 178.357 144.729 178.348 144.824C178.348 144.901 178.34 144.979 178.34 145.065C178.34 145.073 178.34 145.082 178.34 145.091C178.34 145.159 178.331 145.22 178.331 145.288C178.323 145.503 178.306 145.718 178.297 145.942C178.289 146.105 178.28 146.277 178.271 146.458C178.263 146.699 178.246 146.948 178.229 147.206C178.22 147.327 178.22 147.447 178.212 147.567C178.194 147.808 178.186 148.049 178.169 148.29C178.169 148.367 178.16 148.445 178.16 148.513C178.152 148.608 178.152 148.694 178.143 148.789C178.134 148.986 178.117 149.184 178.109 149.382C178.109 149.451 178.1 149.528 178.1 149.597C178.092 149.743 178.083 149.881 178.074 150.027C178.066 150.173 178.057 150.319 178.049 150.466C178.04 150.689 178.023 150.913 178.015 151.145C178.015 151.222 178.006 151.3 178.006 151.377C178.006 151.394 178.006 151.42 178.006 151.437C177.997 151.575 177.989 151.704 177.98 151.842C177.972 152.057 177.955 152.272 177.946 152.495C177.929 152.839 177.903 153.183 177.886 153.536C177.878 153.648 177.878 153.759 177.869 153.871C177.852 154.155 177.835 154.439 177.818 154.723C177.792 155.11 177.775 155.497 177.749 155.892H164.178H152.541C152.541 155.944 152.55 155.995 152.55 156.047C152.55 155.995 152.541 155.944 152.541 155.892C152.541 155.858 152.533 155.832 152.533 155.798C152.524 155.729 152.524 155.66 152.515 155.591C152.507 155.479 152.498 155.376 152.49 155.264C152.43 154.508 152.37 153.768 152.318 153.046C152.293 152.745 152.276 152.452 152.25 152.16C152.25 152.134 152.25 152.108 152.241 152.082C152.224 151.867 152.207 151.652 152.19 151.437C152.181 151.369 152.181 151.3 152.173 151.222C152.164 151.119 152.156 151.016 152.147 150.913C152.139 150.758 152.122 150.603 152.113 150.448C152.087 150.147 152.07 149.855 152.044 149.563C152.027 149.373 152.01 149.176 152.002 148.986C151.993 148.892 151.985 148.806 151.976 148.72C151.967 148.66 151.967 148.608 151.959 148.548C151.95 148.462 151.942 148.376 151.942 148.298C151.942 148.273 151.933 148.238 151.933 148.212C151.925 148.101 151.916 147.989 151.907 147.886C151.907 147.834 151.899 147.782 151.899 147.722C151.89 147.653 151.89 147.576 151.882 147.507C151.873 147.37 151.865 147.241 151.848 147.103C151.848 147.094 151.848 147.094 151.848 147.086C151.839 146.957 151.83 146.828 151.813 146.699C151.813 146.69 151.813 146.69 151.813 146.682C151.805 146.553 151.796 146.432 151.788 146.303C151.779 146.234 151.779 146.174 151.77 146.105C151.753 145.856 151.728 145.607 151.711 145.366C151.711 145.306 151.702 145.254 151.693 145.194C151.685 145.048 151.668 144.901 151.659 144.755C151.608 144.059 151.556 143.414 151.505 142.82C151.377 141.212 151.282 139.991 151.222 139.294C151.188 138.856 151.171 138.623 151.171 138.623L157.593 139.208L178.537 141.16Z" fill="#233862"/>
<path d="M190.875 155.892H186.26H177.723H164.152C161.986 150.354 160.059 145.512 158.817 142.373C158.68 142.021 158.543 141.685 158.424 141.376C158.047 140.421 157.756 139.69 157.567 139.226C157.413 138.839 157.336 138.641 157.336 138.641C157.336 138.641 162.26 130.78 178.229 131.228C182.304 131.339 185.147 134.84 187.194 140.068C188.898 144.446 190.036 150.044 190.875 155.892Z" fill="#2B478B"/>
<path d="M164.203 81.9323C166.549 83.1707 168.844 83.2567 170.831 82.8267C172.646 82.4397 174.213 81.6399 175.326 80.9261C176.465 80.1951 177.141 79.5587 177.141 79.5587C177.141 79.5587 177.064 79.4469 176.927 79.2147C176.234 78.0193 174.127 73.7365 175.069 66.8479C175.078 66.7619 174.401 66.8823 173.374 67.1317C170.317 67.8541 164.186 69.6085 163.912 69.6859C163.903 69.6859 163.903 69.6859 163.903 69.6859C163.903 69.6859 163.826 71.1307 163.578 73.7279C163.561 73.9601 163.535 74.1923 163.51 74.4417C163.475 74.7427 163.45 75.0695 163.407 75.4049C163.116 78.1053 164.203 81.9323 164.203 81.9323Z" fill="#FFB27D"/>
<path d="M163.57 73.7278C168.125 74.777 174.932 68.0174 174.932 68.0174C174.435 67.6476 173.913 67.3552 173.374 67.1316C170.317 67.854 164.186 69.6084 163.912 69.6858C163.903 69.6858 163.903 69.6858 163.903 69.6858C163.903 69.6858 163.818 71.1306 163.57 73.7278Z" fill="#ED975D"/>
<path d="M162.02 69.316C162.02 69.316 163.895 69.9954 166.284 70.3136C169.777 70.7866 174.375 70.5114 175.814 66.263C178.246 59.1164 181.354 54.8336 174.196 51.9096C170.368 50.3444 167.919 50.267 166.25 50.8604C164.803 51.3764 163.955 52.3998 163.304 53.4232C161.917 55.6076 159.126 68.069 162.02 69.316Z" fill="#FFB27D"/>
<path d="M162.003 50.9293C161.112 51.5313 162.105 52.5117 163.064 53.0105C166.01 54.5585 167.859 54.1801 169.332 54.8337C171.113 55.6249 171.43 58.6263 171.464 59.5809C171.498 60.5355 171.618 61.3353 174.041 60.7677C174.435 60.6731 174.726 60.6989 174.915 60.8193C175.917 61.4127 174.632 64.3109 174.247 64.9387C174.247 64.9387 173.69 67.0113 174.923 68.0261C175.069 68.1465 177.501 69.2129 183.34 60.2345C184.256 58.8241 185.138 55.6507 183.717 52.5977C182.304 49.5447 177.501 47.3517 173.005 46.2767C170.12 45.5801 168.51 45.5887 166.601 47.4549C165.779 48.2461 163.818 49.6995 162.003 50.9293Z" fill="#233862"/>
<path d="M184.333 141.333C184.333 141.333 182.33 141.771 179.795 142.201C177.312 142.623 174.324 143.027 172.217 143.018C161.412 142.932 152.37 139.742 152.37 139.742C150.34 139.742 149.407 136.585 149.082 132.174C148.859 129.189 148.902 125.629 149.065 122.086C149.116 120.942 149.184 119.79 149.253 118.663C149.398 116.436 149.561 114.294 149.715 112.402C149.861 110.622 149.989 109.074 150.066 107.861C150.066 107.861 149.775 99.4162 149.895 91.9858C149.972 86.6538 152.952 81.7948 153.697 81.0122C155.863 78.716 163.372 76.9272 163.372 76.9272C168.527 79.834 175.617 76.0242 175.617 76.0242C175.771 76.05 175.925 76.0844 176.079 76.1188C176.593 76.007 181.799 76.781 183.006 77.4518C186.003 79.0944 187.741 97.292 187.741 97.292C188.015 104.026 187.947 112.961 187.998 120.925C188.007 123.316 188.032 125.612 188.075 127.745C188.152 131.554 188.298 134.805 188.589 137.007C188.906 139.484 186.5 140.834 184.333 141.333Z" fill="#F77D48"/>
<path d="M176.037 76.1186C176.037 76.1186 168.356 84.0736 162.867 82.4396C162.867 82.4396 162.14 81.3646 164.606 81.0206C167.072 80.6766 169.752 80.8228 176.037 76.1186Z" fill="#E26337"/>
<path d="M161.968 64.7065C161.968 64.7065 161.814 65.6353 163.964 66.3663C163.964 66.3663 165.762 66.9855 166.087 66.0395C166.087 66.0395 164.657 64.6721 161.968 64.7065Z" fill="white"/>
<path d="M146.941 121.269C147.232 119.996 148.731 104.404 150.169 100.216C150.469 99.3386 150.46 116.848 151.539 120.486C152.618 124.115 146.941 121.269 146.941 121.269Z" fill="#E26337"/>
<path d="M153.783 120.03H158.843C159.425 120.03 159.802 119.557 159.691 118.973L159.203 116.427C159.091 115.842 158.526 115.369 157.944 115.369H152.884C152.301 115.369 151.925 115.842 152.036 116.427L152.524 118.973C152.635 119.549 153.2 120.03 153.783 120.03Z" fill="#2B478B"/>
<path d="M132.522 120.03H137.582C138.164 120.03 138.541 119.557 138.43 118.973L137.942 116.427C137.831 115.842 137.265 115.369 136.683 115.369H131.623C131.04 115.369 130.664 115.842 130.775 116.427L131.263 118.973C131.383 119.549 131.948 120.03 132.522 120.03Z" fill="#2B478B"/>
<path d="M154.39 115.369H156.351L149.458 82.0012H148.568L154.39 115.369Z" fill="#2B478B"/>
<path d="M150.349 81.2443C150.195 80.4187 149.399 79.7479 148.577 79.7479C147.755 79.7479 147.215 80.4187 147.378 81.2443C147.532 82.0699 148.328 82.7407 149.15 82.7407C149.964 82.7407 150.503 82.0699 150.349 81.2443Z" fill="#2B478B"/>
<path d="M133.147 115.369H135.108L128.215 82.0012H127.325L133.147 115.369Z" fill="#2B478B"/>
<path d="M128.817 82.3485C129.319 81.793 129.184 80.8483 128.516 80.2384C127.847 79.6285 126.898 79.5844 126.396 80.1398C125.893 80.6953 126.028 81.6401 126.697 82.25C127.365 82.8599 128.314 82.904 128.817 82.3485Z" fill="#2B478B"/>
<path d="M140.699 118.517L140.828 114.354H148.123C148.894 115.937 149.99 118.216 150.075 118.465C150.067 118.439 150.067 118.431 150.067 118.414H150.957C150.94 118.336 150.906 118.156 148.774 113.778L148.62 113.46H139.937L139.783 118.319L140.699 118.517Z" fill="#2B478B"/>
<path d="M134.628 133.18H161.78C162.131 133.18 162.362 132.896 162.294 132.543L159.674 118.869C159.605 118.517 159.263 118.233 158.92 118.233H131.768C131.417 118.233 131.186 118.517 131.255 118.869L133.875 132.543C133.943 132.896 134.286 133.18 134.628 133.18Z" fill="#2B478B"/>
<path d="M167.166 122.077C167.166 122.077 167.123 125.663 166.087 125.147C165.051 124.631 160.008 125.827 158.021 126.05C156.035 126.274 154.836 124.33 154.81 123.522C154.776 122.714 159.991 121.492 160.076 120.736C160.093 120.589 160.025 120.452 159.948 120.297L159.554 118.233C160.333 118.551 161.489 119.342 162.191 119.575C163.261 119.91 167.166 122.077 167.166 122.077Z" fill="#FFB27D"/>
<path d="M130.595 119.231C130.595 119.231 130.03 121.63 130.724 122.757C131.417 123.883 134.859 124.064 135.399 123.195C135.938 122.327 134.012 120.529 133.258 119.764C132.505 119.007 131.169 118.07 130.595 119.231Z" fill="#FFB27D"/>
<path d="M188.067 127.727C177.578 130.101 165.753 125.818 165.753 125.818L187.99 120.916C187.998 123.298 188.024 125.603 188.067 127.727Z" fill="#E26337"/>
<path d="M166.113 119.893C166.113 119.893 177.167 116.556 179.222 112.523C181.277 108.498 180.823 97.5241 180.823 97.5241L189.497 108.102L187.93 120.091L180.695 120.779L166.113 119.893Z" fill="#E26337"/>
<path d="M182.998 77.4431C182.998 77.4431 187.878 78.1999 191.398 85.8625C194.917 93.5251 197.563 120.194 191.107 124.175C184.65 128.157 165.753 125.818 165.753 125.818C165.753 125.818 164.109 122.92 165.428 120.116C165.428 120.116 182.45 114.587 182.75 113.563C183.041 112.531 180.112 100.01 180.549 95.1419C180.986 90.2829 182.998 77.4431 182.998 77.4431Z" fill="#F77D48"/>
<path d="M171.036 61.9028C171.524 58.953 174.153 56.9234 176.901 57.3878C179.658 57.8436 181.491 60.6128 181.003 63.5626C180.515 66.5124 177.886 68.542 175.137 68.0776C172.389 67.6218 170.548 64.8612 171.036 61.9028Z" fill="#F77D48"/>
<path d="M172.706 62.4533C173.057 60.3377 174.94 58.8843 176.91 59.2111C178.888 59.5379 180.198 61.5245 179.855 63.6401C179.504 65.7557 177.621 67.2091 175.651 66.8823C173.673 66.5469 172.355 64.5689 172.706 62.4533Z" fill="#FF9E55"/>
<path d="M175.343 63.0295C175.343 62.3673 175.874 61.8341 176.533 61.8341C177.192 61.8341 177.723 62.3673 177.723 63.0295C177.723 63.6917 177.192 64.2249 176.533 64.2249C175.882 64.2249 175.343 63.6917 175.343 63.0295Z" fill="#ED823A"/>
<path d="M176.876 63.4336C176.833 63.4336 176.79 63.4336 176.739 63.425C176.353 63.3476 176.105 62.9778 176.174 62.5908C176.182 62.5564 176.841 59.039 176.756 55.3153C176.679 52.0387 176.371 47.9107 173.75 46.5089C173.451 46.3455 172.372 46.1219 172.372 46.1219C172.398 45.8639 174.264 45.7607 175.086 46.0445C182.124 48.5213 177.689 62.2554 177.569 62.8574C177.509 63.1928 177.21 63.4336 176.876 63.4336Z" fill="#F77D48"/>
<path d="M180.78 41.8906C180.78 41.8906 182.912 38.2958 188.007 38.6914C188.007 38.6914 195.405 32.6972 203.282 37.8916C203.282 37.8916 211.665 36.6016 217.873 39.0096C222.008 40.6092 223.378 42.2948 223.378 42.2948L180.78 41.8906Z" fill="#F8FCFF"/>
<path d="M212.461 51.7548C212.461 51.7548 213.694 49.5618 216.657 49.8026C216.657 49.8026 220.955 46.1476 225.528 49.3124C225.528 49.3124 230.4 48.5298 234.005 49.9918C236.411 50.9722 237.198 51.9956 237.198 51.9956L212.461 51.7548Z" fill="#F8FCFF"/>
<path d="M119.079 59.5636C119.079 59.5636 120.072 57.8006 122.452 57.9984C122.452 57.9984 125.903 55.0572 129.585 57.6028C129.585 57.6028 133.498 56.975 136.401 58.1532C138.336 58.9358 138.969 59.7614 138.969 59.7614L119.079 59.5636Z" fill="#F8FCFF"/>
</svg>
