<svg width="702" height="702" viewBox="0 0 702 702" fill="none" xmlns="http://www.w3.org/2000/svg">
<path d="M557.381 539.594C543.568 553.823 531.212 562.205 521.751 568.525C429.45 630.154 323.961 612.386 291.34 606.312C238.718 596.511 194.289 589.604 156.124 555.129C69.4053 476.773 73.6249 313.327 139.889 212.076C147.742 200.079 213.911 101.989 319.647 88.1568C322.239 87.8162 324.169 87.6269 325.853 87.4566C342.201 85.7158 443.566 76.5766 526.197 145.831C538.023 155.746 557.059 173.627 574.713 200.893C639.255 300.554 639.463 454.975 557.381 539.594Z" fill="url(#paint0_linear_1_1031)"/>
<path d="M218.49 110.806C205.87 111.904 196.201 122.462 196.163 135.14C195.936 212.587 195.576 479.706 200.628 574.259C201.158 584.268 209.37 592.14 219.399 592.253C269.012 592.783 411.701 593.767 492.725 588.583C509.603 587.504 522.735 573.521 522.716 556.624C522.621 475.335 521.315 246.76 510.189 142.273C508.846 129.747 498.798 119.983 486.234 118.999C432.118 114.78 288.444 104.713 218.49 110.806Z" fill="url(#paint1_linear_1_1031)"/>
<path d="M216.087 155.424C215.122 221.669 212.341 442.033 217.185 523.378C217.885 535.261 227.119 544.646 238.529 545.044C285.474 546.671 405.873 549.85 474.465 542.3C486.821 540.938 496.263 530.228 496.585 517.266C498.306 449.659 502.942 244.413 498.231 163.977C497.474 151.148 487.672 140.911 475.392 140.078C424.568 136.654 294.026 128.763 235.69 133.607C224.735 134.534 216.258 143.957 216.087 155.424Z" fill="#FFEECC"/>
<path d="M329.505 122.33C329.543 124.165 331 125.641 332.835 125.698C341.861 125.982 367.311 126.757 378.683 127.155C380.934 127.23 382.637 125.187 382.164 122.992C382.126 122.916 381.843 120.116 378.967 119.908C371.265 119.378 348.067 117.921 332.722 118.81C329.581 118.999 329.41 122.576 329.505 122.33Z" fill="url(#paint2_linear_1_1031)"/>
<path d="M271.188 355.485C271.188 355.485 335.9 339.25 404.265 349.032C423.508 351.795 440.538 362.978 450.926 379.402C469.64 408.995 496.074 461.75 490.473 516.755L461.106 524.021C461.106 524.021 440.822 458.741 417.983 432.175C417.983 432.175 390.944 493.822 392.306 527.673C392.344 528.638 392.401 529.565 392.496 530.474C395.599 563.587 262.673 536.661 262.673 536.661L271.188 355.485Z" fill="url(#paint3_linear_1_1031)"/>
<path d="M341.142 300.214L327.367 344.094C326.08 348.181 327.367 352.552 330.564 355.011C337.944 360.688 352.514 369.733 370.319 369.468C373.574 369.411 376.317 366.648 376.545 363.224L381.445 289.883L341.142 300.214Z" fill="url(#paint4_linear_1_1031)"/>
<path d="M394.482 252.134C394.482 252.134 399.837 286.685 396.469 303.204C393.101 319.722 393.839 331.208 374.141 329.543C354.463 327.878 341.066 314.33 336.733 295.862C336.733 295.862 329.845 267.347 335.541 257.905C341.274 248.463 394.482 252.134 394.482 252.134Z" fill="url(#paint5_linear_1_1031)"/>
<path d="M346.232 285.89L348.616 286.514C348.616 286.514 344.094 263.827 353.63 262.559C363.167 261.292 399.118 263.297 409.658 253.117C419.819 243.316 417.453 226.57 409.09 219.872C408.56 219.455 407.784 219.55 407.33 220.042L406.157 221.329C405.362 222.199 403.887 221.65 403.868 220.458C403.849 219.323 402.486 218.736 401.673 219.512C398.475 222.54 390.812 226.816 373.668 225.548C349.316 223.732 331.492 229.106 326.913 245.038C326.629 246.041 325.38 246.324 324.661 245.568C323.223 244.073 320.612 242.862 316.127 244.981C308.35 248.671 307.291 263.259 318.265 278.378C318.795 279.097 318.511 280.138 317.66 280.403C314.689 281.387 309.883 284.32 318.303 292.115C326.913 300.1 332.986 301.065 335.371 301.084C336.014 301.084 336.563 300.649 336.695 300.025L339.552 285.568C339.704 284.811 340.442 284.357 341.18 284.547L346.232 285.89Z" fill="url(#paint6_linear_1_1031)"/>
<path d="M346.043 289.012C346.043 289.012 346.099 267.857 335.749 271.074C325.399 274.291 334.519 294.48 341.463 297.092L346.043 289.012Z" fill="url(#paint7_linear_1_1031)"/>
<path d="M273.894 494.484C271.036 474.238 289.693 437.454 298.359 426.158C300.838 422.922 302.22 418.986 302.257 414.899C302.503 386.232 290.469 367.822 271.188 355.466C271.188 355.466 201.196 437.019 219.02 499.726C220.95 506.5 223.921 512.309 227.705 517.304C230.506 493.69 260.118 495.582 273.894 494.484Z" fill="url(#paint8_linear_1_1031)"/>
<path d="M272.891 479.631L270.223 479.328C272.474 459.479 289.901 434.975 297.281 425.363L299.419 426.99C292.172 436.413 275.086 460.444 272.891 479.631Z" fill="url(#paint9_linear_1_1031)"/>
<path d="M274.234 493.538C266.363 493.557 230.146 494.787 226.797 516.396C258.037 557.702 344.131 542.811 344.131 542.811V526.727C344.131 526.727 290.166 516.925 276.448 494.768C275.975 493.992 275.142 493.538 274.234 493.538Z" fill="url(#paint10_linear_1_1031)"/>
<path d="M336.752 539.291C336.752 539.291 349.467 509.3 371.871 519.934C394.274 530.568 392.514 537.532 392.514 537.532L336.752 539.291Z" fill="url(#paint11_linear_1_1031)"/>
<path d="M333.895 545.517C334.065 547.787 336.014 549.509 338.285 549.433L454.351 545.384C456.149 545.327 457.719 544.135 458.268 542.394L461.636 531.609C462.469 528.96 460.576 526.235 457.795 526.103L415.467 523.851C415.088 523.832 414.691 523.87 414.312 523.946L337.206 541.032C335.144 541.505 333.724 543.416 333.895 545.517Z" fill="url(#paint12_linear_1_1031)"/>
<path d="M411.701 541.297L414.899 526.405L458.381 528.487L455.505 540.824L411.701 541.297Z" fill="url(#paint13_linear_1_1031)"/>
<path d="M389.411 381.105C386.951 401.219 375.882 482.904 372.703 506.254C372.249 509.527 374.86 512.422 378.172 512.328L565.952 506.954C568.412 506.878 570.512 505.156 571.042 502.753L600.257 371.209C601.033 367.727 598.252 364.472 594.713 364.681L394.426 376.412C391.833 376.545 389.733 378.531 389.411 381.105Z" fill="url(#paint14_linear_1_1031)"/>
<path d="M464.891 463.604L437.132 542.375L501.675 543.738L507.048 464.077C507.294 460.33 504.191 457.227 500.464 457.492L470.321 459.498C467.861 459.649 465.723 461.258 464.891 463.604Z" fill="url(#paint15_linear_1_1031)"/>
<path d="M410.982 543.492C410.263 545.668 411.89 547.882 414.161 547.882H515.223C517.077 547.882 518.572 546.387 518.572 544.532V540.199C518.572 538.288 516.982 536.774 515.071 536.85L414.01 541.183C412.628 541.24 411.417 542.167 410.982 543.492Z" fill="url(#paint16_linear_1_1031)"/>
<path d="M386.573 464.209L385.249 464.039L394.482 391.284C395.05 386.762 398.759 383.299 403.3 383.016L576.378 372.571L576.454 373.914L403.376 384.359C399.478 384.586 396.299 387.576 395.807 391.455L386.573 464.209Z" fill="#91B3FA"/>
<path d="M382.626 484.75L380.642 500.502L381.975 500.67L383.959 484.918L382.626 484.75Z" fill="#91B3FA"/>
<path d="M376.053 311.321C355.201 312.892 343.072 291.34 342.958 291.113L344.358 290.337C344.472 290.545 356.109 311.227 375.939 309.713L376.053 311.321Z" fill="url(#paint17_linear_1_1031)"/>
<path d="M384.548 310.526C384.548 311.756 383.546 312.759 382.316 312.759H376.355C375.125 312.759 374.123 311.756 374.123 310.526C374.123 309.297 375.125 308.294 376.355 308.294H382.316C383.546 308.275 384.548 309.278 384.548 310.526Z" fill="url(#paint18_linear_1_1031)"/>
<path d="M344.396 267.195C344.396 267.195 351.889 228.803 373.933 225.189C373.933 225.189 367.689 222.048 361.18 225.454C354.671 228.86 338.209 247.554 338.89 268.141C343.356 269.75 344.396 267.195 344.396 267.195Z" fill="url(#paint19_linear_1_1031)"/>
<path d="M340.574 265.379C329.108 267.706 330.527 282.2 330.527 282.2C329.694 292.721 332.778 297.943 336.714 300.422C339.401 302.125 342.788 302.277 345.626 300.838C348.465 299.4 350.338 296.581 350.584 293.421C350.792 290.564 351.038 287.839 351.246 286.874C351.738 284.528 352.022 263.052 340.574 265.379Z" fill="url(#paint20_linear_1_1031)"/>
<path d="M341.615 269.05C339.231 268.634 336.884 269.901 335.938 272.115C329.089 287.991 337.49 298.303 341.634 298.53C345.986 298.757 345.891 277.811 344.983 272.456C344.586 270.204 343.148 269.315 341.615 269.05Z" fill="url(#paint21_linear_1_1031)"/>
<path d="M507.067 335.862C546.089 335.862 577.721 304.23 577.721 265.208C577.721 226.187 546.089 194.554 507.067 194.554C468.046 194.554 436.413 226.187 436.413 265.208C436.413 304.23 468.046 335.862 507.067 335.862Z" fill="white"/>
<path d="M504.418 309.618C501.088 309.845 497.985 308.293 496.263 305.512L467.332 259.059C464.626 254.707 466.083 248.746 470.586 245.738C475.089 242.729 480.936 243.827 483.661 248.179L503.718 280.421L530.19 226.494C532.574 221.65 538.269 219.436 542.943 221.537C547.598 223.637 549.452 229.257 547.087 234.082L512.876 303.828C511.306 307.026 508.203 309.22 504.74 309.561C504.645 309.599 504.532 309.618 504.418 309.618Z" fill="url(#paint22_linear_1_1031)"/>
<path d="M276.637 594.675V510.871C276.637 499.858 267.782 490.908 256.769 490.776C223.732 490.416 155.575 490.397 99.7938 495.09C92.1872 495.733 86.2647 501.977 85.9809 509.603L80.7963 590.626C80.4178 601.336 88.8759 610.305 99.6046 610.494L257.45 613.503C267.99 613.711 276.637 605.215 276.637 594.675Z" fill="url(#paint23_linear_1_1031)"/>
<path d="M257.488 519.934C257.621 527.067 257.413 538.383 257.242 545.686C257.148 549.49 253.818 552.385 250.033 551.95L222.843 548.771C219.228 548.354 216.674 545.005 217.204 541.391L220.534 519.12C221.007 515.96 223.732 513.614 226.93 513.614H251.036C254.556 513.614 257.432 516.414 257.488 519.934Z" fill="white"/>
<path opacity="0.37" d="M186.418 562.13L163.731 564.571C160.552 564.911 157.846 562.3 158.073 559.102L163.031 491.627C172.548 491.324 181.915 491.097 190.978 490.946V557.059C190.997 559.67 189.029 561.865 186.418 562.13Z" fill="white"/>
<path d="M177.127 550.436C177.052 551.647 176.049 552.593 174.857 552.593C174.819 552.593 174.762 552.593 174.724 552.593C173.457 552.517 172.51 551.439 172.586 550.19L176.011 491.286C177.544 491.249 179.057 491.211 180.59 491.173L177.127 550.436Z" fill="white"/>
<path d="M244.924 541.183C245.322 541.183 245.662 540.881 245.681 540.464L246.854 521.921C246.873 521.505 246.57 521.145 246.135 521.107C245.7 521.069 245.359 521.391 245.322 521.826L244.148 540.37C244.13 540.786 244.432 541.145 244.867 541.183C244.886 541.183 244.905 541.183 244.924 541.183Z" fill="url(#paint24_linear_1_1031)"/>
<path d="M242.502 541.183C242.919 541.183 243.24 540.862 243.259 540.445L243.884 521.543C243.902 521.126 243.562 520.767 243.146 520.748C242.654 520.729 242.37 521.069 242.351 521.486L241.726 540.389C241.708 540.805 242.048 541.164 242.464 541.183C242.464 541.183 242.483 541.183 242.502 541.183Z" fill="url(#paint25_linear_1_1031)"/>
<path d="M239.21 541.183C238.794 541.164 238.472 540.805 238.491 540.388C238.794 534.031 239.361 521.921 239.38 521.504C239.38 521.088 239.721 520.748 240.137 520.748C240.553 520.748 240.894 521.088 240.894 521.504C240.894 521.826 240.156 537.342 240.005 540.445C239.986 540.861 239.645 541.164 239.248 541.164C239.229 541.183 239.229 541.183 239.21 541.183Z" fill="url(#paint26_linear_1_1031)"/>
<path d="M234.177 541.959C234.99 541.959 235.672 541.316 235.69 540.483C236.334 522.167 236.22 521.751 236.145 521.486C235.918 520.672 235.085 520.199 234.271 520.426C233.533 520.634 233.06 521.353 233.155 522.091C233.212 523.189 232.871 533.842 232.644 540.389C232.606 541.221 233.268 541.94 234.101 541.959C234.139 541.959 234.158 541.959 234.177 541.959Z" fill="url(#paint27_linear_1_1031)"/>
<path d="M230.884 541.183C231.301 541.183 231.641 540.843 231.641 540.426V521.883C231.641 521.467 231.301 521.126 230.884 521.126C230.468 521.126 230.128 521.467 230.128 521.883V540.426C230.128 540.843 230.468 541.183 230.884 541.183Z" fill="url(#paint28_linear_1_1031)"/>
<path d="M228.216 541.183C228.633 541.183 228.973 540.862 228.973 540.445C229.125 533.993 229.465 523.472 229.768 522.205C229.9 521.959 229.9 521.656 229.749 521.41C229.522 521.05 229.049 520.956 228.689 521.183C228.273 521.448 227.876 521.713 227.459 540.389C227.441 540.843 227.781 541.183 228.216 541.183Z" fill="url(#paint29_linear_1_1031)"/>
<path d="M249.011 542.886C249.806 542.886 250.487 542.262 250.525 541.448L251.547 521.978C251.585 521.145 250.941 520.426 250.109 520.388C249.314 520.331 248.557 520.994 248.519 521.826L247.498 541.297C247.46 542.129 248.103 542.848 248.936 542.886C248.955 542.886 248.992 542.886 249.011 542.886Z" fill="url(#paint30_linear_1_1031)"/>
<path d="M235.104 481.258V422.392C235.104 414.653 228.897 408.371 221.158 408.276C197.96 408.03 150.088 408.011 110.92 411.304C105.584 411.758 101.421 416.129 101.232 421.503L97.5799 478.401C97.315 485.932 103.256 492.214 110.787 492.365L221.631 494.465C229.03 494.617 235.104 488.656 235.104 481.258Z" fill="url(#paint31_linear_1_1031)"/>
<path d="M221.669 428.769C221.764 433.783 221.613 441.73 221.499 446.858C221.442 449.526 219.096 451.569 216.428 451.248L197.336 449.015C194.8 448.712 193.003 446.366 193.381 443.83L195.727 428.182C196.068 425.968 197.96 424.322 200.212 424.322H217.147C219.588 424.341 221.613 426.309 221.669 428.769Z" fill="white"/>
<path opacity="0.37" d="M171.754 458.4L155.821 460.122C153.589 460.368 151.696 458.533 151.848 456.281L155.329 408.882C162.009 408.674 168.594 408.522 174.951 408.409V454.824C174.951 456.678 173.57 458.211 171.754 458.4Z" fill="white"/>
<path d="M165.225 450.188C165.169 451.039 164.469 451.702 163.636 451.702C163.598 451.702 163.579 451.702 163.541 451.702C162.652 451.645 161.99 450.888 162.028 450.018L164.431 408.655C165.509 408.636 166.569 408.598 167.647 408.579L165.225 450.188Z" fill="white"/>
<path d="M212.833 443.698C213.117 443.698 213.344 443.49 213.363 443.206L214.195 430.169C214.214 429.866 213.987 429.62 213.703 429.601C213.4 429.582 213.154 429.809 213.136 430.093L212.303 443.13C212.284 443.433 212.511 443.679 212.795 443.698C212.814 443.698 212.814 443.698 212.833 443.698Z" fill="url(#paint32_linear_1_1031)"/>
<path d="M211.13 443.698C211.414 443.698 211.66 443.471 211.66 443.187L212.095 429.904C212.095 429.601 211.868 429.355 211.584 429.355C211.243 429.336 211.035 429.582 211.035 429.866L210.6 443.149C210.581 443.433 210.827 443.679 211.13 443.698C211.111 443.698 211.13 443.698 211.13 443.698Z" fill="url(#paint33_linear_1_1031)"/>
<path d="M208.821 443.698C208.519 443.679 208.292 443.433 208.31 443.13C208.519 438.665 208.935 430.169 208.935 429.866C208.935 429.582 209.181 429.336 209.465 429.336C209.767 429.336 209.995 429.582 209.995 429.866C209.995 430.093 209.484 440.992 209.37 443.168C209.351 443.452 209.124 443.679 208.84 443.679C208.84 443.698 208.84 443.698 208.821 443.698Z" fill="url(#paint34_linear_1_1031)"/>
<path d="M205.283 444.228C205.851 444.228 206.324 443.774 206.343 443.206C206.797 430.339 206.721 430.055 206.664 429.866C206.513 429.298 205.926 428.958 205.359 429.109C204.829 429.261 204.507 429.753 204.583 430.282C204.621 431.058 204.375 438.532 204.223 443.13C204.204 443.717 204.659 444.209 205.245 444.228C205.264 444.228 205.283 444.228 205.283 444.228Z" fill="url(#paint35_linear_1_1031)"/>
<path d="M202.975 443.698C203.277 443.698 203.504 443.452 203.504 443.168V430.131C203.504 429.828 203.258 429.601 202.975 429.601C202.672 429.601 202.445 429.847 202.445 430.131V443.168C202.445 443.452 202.672 443.698 202.975 443.698Z" fill="url(#paint36_linear_1_1031)"/>
<path d="M201.101 443.698C201.385 443.698 201.631 443.471 201.631 443.168C201.726 438.646 201.972 431.247 202.18 430.358C202.274 430.188 202.274 429.98 202.161 429.809C201.991 429.563 201.669 429.488 201.423 429.658C201.139 429.847 200.855 430.036 200.553 443.149C200.571 443.452 200.799 443.698 201.101 443.698Z" fill="url(#paint37_linear_1_1031)"/>
<path d="M215.709 444.89C216.277 444.89 216.75 444.455 216.769 443.868L217.488 430.188C217.525 429.601 217.071 429.09 216.485 429.071C215.917 429.033 215.387 429.488 215.368 430.074L214.649 443.755C214.612 444.341 215.066 444.852 215.652 444.871C215.671 444.89 215.69 444.89 215.709 444.89Z" fill="url(#paint38_linear_1_1031)"/>
<defs>
<linearGradient id="paint0_linear_1_1031" x1="669.721" y1="699.394" x2="295.536" y2="301.068" gradientUnits="userSpaceOnUse">
<stop stop-color="#DAE3FE"/>
<stop offset="1" stop-color="#E9EFFD"/>
</linearGradient>
<linearGradient id="paint1_linear_1_1031" x1="642.351" y1="792.733" x2="42.097" y2="-116.744" gradientUnits="userSpaceOnUse">
<stop stop-color="#3E3B3B"/>
<stop offset="1" stop-color="#7D7A7A"/>
</linearGradient>
<linearGradient id="paint2_linear_1_1031" x1="329.494" y1="122.839" x2="382.261" y2="122.839" gradientUnits="userSpaceOnUse">
<stop stop-color="#4F52FF"/>
<stop offset="1" stop-color="#4042E2"/>
</linearGradient>
<linearGradient id="paint3_linear_1_1031" x1="335.402" y1="491.766" x2="618.638" y2="144.865" gradientUnits="userSpaceOnUse">
<stop stop-color="#E1473D"/>
<stop offset="1" stop-color="#E9605A"/>
</linearGradient>
<linearGradient id="paint4_linear_1_1031" x1="330.008" y1="410.21" x2="361.642" y2="324.555" gradientUnits="userSpaceOnUse">
<stop stop-color="#FEBBBA"/>
<stop offset="1" stop-color="#FF928E"/>
</linearGradient>
<linearGradient id="paint5_linear_1_1031" x1="390.143" y1="280.166" x2="297.454" y2="318.941" gradientUnits="userSpaceOnUse">
<stop stop-color="#FEBBBA"/>
<stop offset="1" stop-color="#FF928E"/>
</linearGradient>
<linearGradient id="paint6_linear_1_1031" x1="384.658" y1="183.043" x2="345.681" y2="299.976" gradientUnits="userSpaceOnUse">
<stop stop-color="#09005D"/>
<stop offset="1" stop-color="#1A0F91"/>
</linearGradient>
<linearGradient id="paint7_linear_1_1031" x1="383.857" y1="265.139" x2="291.168" y2="303.915" gradientUnits="userSpaceOnUse">
<stop stop-color="#FEBBBA"/>
<stop offset="1" stop-color="#FF928E"/>
</linearGradient>
<linearGradient id="paint8_linear_1_1031" x1="264.958" y1="434.25" x2="548.194" y2="87.3498" gradientUnits="userSpaceOnUse">
<stop stop-color="#E1473D"/>
<stop offset="1" stop-color="#E9605A"/>
</linearGradient>
<linearGradient id="paint9_linear_1_1031" x1="245.334" y1="280.65" x2="319.391" y2="604.164" gradientUnits="userSpaceOnUse">
<stop stop-color="#FF928E"/>
<stop offset="1" stop-color="#FE7062"/>
</linearGradient>
<linearGradient id="paint10_linear_1_1031" x1="265.621" y1="469.313" x2="313.463" y2="595.212" gradientUnits="userSpaceOnUse">
<stop stop-color="#FEBBBA"/>
<stop offset="1" stop-color="#FF928E"/>
</linearGradient>
<linearGradient id="paint11_linear_1_1031" x1="327.531" y1="440.192" x2="378.552" y2="574.457" gradientUnits="userSpaceOnUse">
<stop stop-color="#FEBBBA"/>
<stop offset="1" stop-color="#FF928E"/>
</linearGradient>
<linearGradient id="paint12_linear_1_1031" x1="380.282" y1="567.001" x2="446.541" y2="467.613" gradientUnits="userSpaceOnUse">
<stop stop-color="#4F52FF"/>
<stop offset="1" stop-color="#4042E2"/>
</linearGradient>
<linearGradient id="paint13_linear_1_1031" x1="402.898" y1="582.077" x2="469.156" y2="482.69" gradientUnits="userSpaceOnUse">
<stop stop-color="#4F52FF"/>
<stop offset="1" stop-color="#4042E2"/>
</linearGradient>
<linearGradient id="paint14_linear_1_1031" x1="449.594" y1="458.355" x2="682.473" y2="331.684" gradientUnits="userSpaceOnUse">
<stop stop-color="#4F52FF"/>
<stop offset="1" stop-color="#4042E2"/>
</linearGradient>
<linearGradient id="paint15_linear_1_1031" x1="475.286" y1="415.519" x2="471.388" y2="522.702" gradientUnits="userSpaceOnUse">
<stop stop-color="#4F52FF"/>
<stop offset="1" stop-color="#4042E2"/>
</linearGradient>
<linearGradient id="paint16_linear_1_1031" x1="442.411" y1="582.213" x2="542.848" y2="412.403" gradientUnits="userSpaceOnUse">
<stop stop-color="#4F52FF"/>
<stop offset="1" stop-color="#4042E2"/>
</linearGradient>
<linearGradient id="paint17_linear_1_1031" x1="342.165" y1="317.892" x2="369.476" y2="291.635" gradientUnits="userSpaceOnUse">
<stop stop-color="#4F52FF"/>
<stop offset="1" stop-color="#4042E2"/>
</linearGradient>
<linearGradient id="paint18_linear_1_1031" x1="374.111" y1="310.518" x2="384.554" y2="310.518" gradientUnits="userSpaceOnUse">
<stop stop-color="#4F52FF"/>
<stop offset="1" stop-color="#4042E2"/>
</linearGradient>
<linearGradient id="paint19_linear_1_1031" x1="433.391" y1="218.676" x2="205.296" y2="297.736" gradientUnits="userSpaceOnUse">
<stop stop-color="#4F52FF"/>
<stop offset="1" stop-color="#4042E2"/>
</linearGradient>
<linearGradient id="paint20_linear_1_1031" x1="376.191" y1="215.707" x2="339.162" y2="287.815" gradientUnits="userSpaceOnUse">
<stop stop-color="#4F52FF"/>
<stop offset="1" stop-color="#4042E2"/>
</linearGradient>
<linearGradient id="paint21_linear_1_1031" x1="361.06" y1="263.872" x2="396.789" y2="229.442" gradientUnits="userSpaceOnUse">
<stop stop-color="#4F52FF"/>
<stop offset="1" stop-color="#4042E2"/>
</linearGradient>
<linearGradient id="paint22_linear_1_1031" x1="492.716" y1="118.6" x2="501.486" y2="194.023" gradientUnits="userSpaceOnUse">
<stop stop-color="#FF928E"/>
<stop offset="1" stop-color="#FE7062"/>
</linearGradient>
<linearGradient id="paint23_linear_1_1031" x1="303.654" y1="468.028" x2="-87.9773" y2="741.26" gradientUnits="userSpaceOnUse">
<stop stop-color="#FF928E"/>
<stop offset="1" stop-color="#FE7062"/>
</linearGradient>
<linearGradient id="paint24_linear_1_1031" x1="236.31" y1="517.792" x2="284.992" y2="588.532" gradientUnits="userSpaceOnUse">
<stop stop-color="#09005D"/>
<stop offset="1" stop-color="#1A0F91"/>
</linearGradient>
<linearGradient id="paint25_linear_1_1031" x1="234.559" y1="518.997" x2="283.241" y2="589.738" gradientUnits="userSpaceOnUse">
<stop stop-color="#09005D"/>
<stop offset="1" stop-color="#1A0F91"/>
</linearGradient>
<linearGradient id="paint26_linear_1_1031" x1="232.447" y1="520.45" x2="281.129" y2="591.191" gradientUnits="userSpaceOnUse">
<stop stop-color="#09005D"/>
<stop offset="1" stop-color="#1A0F91"/>
</linearGradient>
<linearGradient id="paint27_linear_1_1031" x1="228.794" y1="522.965" x2="277.476" y2="593.705" gradientUnits="userSpaceOnUse">
<stop stop-color="#09005D"/>
<stop offset="1" stop-color="#1A0F91"/>
</linearGradient>
<linearGradient id="paint28_linear_1_1031" x1="226.385" y1="524.622" x2="275.067" y2="595.364" gradientUnits="userSpaceOnUse">
<stop stop-color="#09005D"/>
<stop offset="1" stop-color="#1A0F91"/>
</linearGradient>
<linearGradient id="paint29_linear_1_1031" x1="224.89" y1="525.651" x2="273.571" y2="596.392" gradientUnits="userSpaceOnUse">
<stop stop-color="#09005D"/>
<stop offset="1" stop-color="#1A0F91"/>
</linearGradient>
<linearGradient id="paint30_linear_1_1031" x1="238.814" y1="516.069" x2="287.496" y2="586.809" gradientUnits="userSpaceOnUse">
<stop stop-color="#09005D"/>
<stop offset="1" stop-color="#1A0F91"/>
</linearGradient>
<linearGradient id="paint31_linear_1_1031" x1="248.306" y1="396.345" x2="-26.7268" y2="588.228" gradientUnits="userSpaceOnUse">
<stop stop-color="#FF928E"/>
<stop offset="1" stop-color="#FE7062"/>
</linearGradient>
<linearGradient id="paint32_linear_1_1031" x1="206.786" y1="427.264" x2="240.974" y2="476.945" gradientUnits="userSpaceOnUse">
<stop stop-color="#09005D"/>
<stop offset="1" stop-color="#1A0F91"/>
</linearGradient>
<linearGradient id="paint33_linear_1_1031" x1="205.557" y1="428.11" x2="239.744" y2="477.791" gradientUnits="userSpaceOnUse">
<stop stop-color="#09005D"/>
<stop offset="1" stop-color="#1A0F91"/>
</linearGradient>
<linearGradient id="paint34_linear_1_1031" x1="204.074" y1="429.131" x2="238.262" y2="478.81" gradientUnits="userSpaceOnUse">
<stop stop-color="#09005D"/>
<stop offset="1" stop-color="#1A0F91"/>
</linearGradient>
<linearGradient id="paint35_linear_1_1031" x1="201.508" y1="430.897" x2="235.697" y2="480.575" gradientUnits="userSpaceOnUse">
<stop stop-color="#09005D"/>
<stop offset="1" stop-color="#1A0F91"/>
</linearGradient>
<linearGradient id="paint36_linear_1_1031" x1="199.817" y1="432.061" x2="234.005" y2="481.74" gradientUnits="userSpaceOnUse">
<stop stop-color="#09005D"/>
<stop offset="1" stop-color="#1A0F91"/>
</linearGradient>
<linearGradient id="paint37_linear_1_1031" x1="198.767" y1="432.784" x2="232.955" y2="482.463" gradientUnits="userSpaceOnUse">
<stop stop-color="#09005D"/>
<stop offset="1" stop-color="#1A0F91"/>
</linearGradient>
<linearGradient id="paint38_linear_1_1031" x1="208.546" y1="426.054" x2="242.734" y2="475.733" gradientUnits="userSpaceOnUse">
<stop stop-color="#09005D"/>
<stop offset="1" stop-color="#1A0F91"/>
</linearGradient>
</defs>
</svg>
